<svg xmlns="http://www.w3.org/2000/svg" xmlns:xlink="http://www.w3.org/1999/xlink" width="88" height="31" viewBox="0 0 88 31">
	<defs>
		<linearGradient id="gradient-fill" x1="43.671" y1="0.188" x2="44.204" y2="30.688" gradientUnits="userSpaceOnUse">
			<stop id="stop4257" offset="0" style="stop-color:rgb(255, 255, 255); stop-opacity:1"/>
			<stop id="stop4259" offset="1" style="stop-color:rgb(235, 235, 235); stop-opacity:1"/>
		</linearGradient>
		<linearGradient id="gradient-stroke" x1="43.671" y1="0.188" x2="44.204" y2="30.688" gradientUnits="userSpaceOnUse">
			<stop id="stop4220" offset="0" style="stop-color:rgb(200, 200, 200); stop-opacity:1"/>
			<stop id="stop4222" offset="1" style="stop-color:rgb(120, 120, 120); stop-opacity:1"/>
		</linearGradient>
		<linearGradient id="gradient" x1="4" x2="31" y1="28" y2="3" gradientUnits="userSpaceOnUse">
			<stop offset="0%" stop-color="#0a00b2"/>
			<stop offset="50%" stop-color="#ff0000"/>
			<stop offset="100%" stop-color="#fffc00"/>
		</linearGradient>
		<style>
			.button {
				fill: url(#gradient-fill);
				stroke-width: 0.5;
				stroke: url(#gradient-stroke);
			}
			.wordmark {
				fill: #000000;
			}
			.powered {
				fill: #000000;
			}
			.petals {
				fill: url(#gradient);
			}
			.petal {
				opacity: 0.65;
			}
		</style>
	</defs>
	<path id="button" class="button" d="M4.96,0.2H82.9a4.78,4.78,0,0,1,4.78,4.78V25.92A4.78,4.78,0,0,1,82.9,30.7H4.96A4.78,4.78,0,0,1,.18,25.92V4.98A4.78,4.78,0,0,1,4.96.2Z"/>
	<path id="wordmark" class="wordmark" d="M41.748,22.96l-0.009-6.947H40.782l-2.443,4.6-2.488-4.6H34.892V22.96H36V18.414l2.059,3.752H38.58l2.059-3.811,0.009,4.6h1.1Zm5.9-2.62a3.179,3.179,0,0,0-.309-1.434A2.281,2.281,0,0,0,45.23,17.6a2.355,2.355,0,0,0-2.153,1.315,3.013,3.013,0,0,0-.318,1.394,2.966,2.966,0,0,0,.327,1.4,2.371,2.371,0,0,0,.926.968,2.937,2.937,0,0,0,2.5.129,2.039,2.039,0,0,0,.815-0.645l-0.6-.764a1.658,1.658,0,0,1-1.3.576,1.573,1.573,0,0,1-1.034-.342,1.471,1.471,0,0,1-.515-0.928h3.75q0.018-.238.018-0.367h0ZM45.23,18.593a1.257,1.257,0,0,1,.913.357,1.519,1.519,0,0,1,.439.933H43.869a1.535,1.535,0,0,1,.452-0.938,1.271,1.271,0,0,1,.909-0.352h0Zm6.874-3v2.719a1.765,1.765,0,0,0-.671-0.536,2.078,2.078,0,0,0-.868-0.179,2.292,2.292,0,0,0-2.1,1.29,3.382,3.382,0,0,0,0,2.843,2.285,2.285,0,0,0,2.1,1.3,2.117,2.117,0,0,0,.9-0.189,1.756,1.756,0,0,0,.685-0.566V22.96h1.074V15.6H52.1ZM50.7,21.967a1.329,1.329,0,0,1-.725-0.2,1.41,1.41,0,0,1-.51-0.581,2.123,2.123,0,0,1,0-1.747,1.413,1.413,0,0,1,.51-0.581,1.393,1.393,0,0,1,1.45,0,1.413,1.413,0,0,1,.51.581,2.123,2.123,0,0,1,0,1.747,1.41,1.41,0,0,1-.51.581,1.329,1.329,0,0,1-.725.2h0Zm3.813,0.992H55.63v-5.3H54.512v5.3ZM58.745,17.6a3.654,3.654,0,0,0-1.119.169,2.618,2.618,0,0,0-.9.486l0.439,0.9a1.9,1.9,0,0,1,.658-0.387,2.341,2.341,0,0,1,.792-0.139,1.214,1.214,0,0,1,.891.3,1.151,1.151,0,0,1,.3.854v0.079H58.566a2.208,2.208,0,0,0-1.508.432,1.468,1.468,0,0,0-.479,1.146,1.548,1.548,0,0,0,.219.819,1.494,1.494,0,0,0,.622.566,2.059,2.059,0,0,0,.94.2,2.1,2.1,0,0,0,.917-0.184,1.342,1.342,0,0,0,.586-0.531V22.96H60.92V19.853a2.3,2.3,0,0,0-.559-1.692,2.185,2.185,0,0,0-1.616-.561h0Zm-0.152,4.526a1.028,1.028,0,0,1-.671-0.2,0.657,0.657,0,0,1-.242-0.536q0-.7.967-0.7H59.8V21.3a1.139,1.139,0,0,1-.461.61,1.336,1.336,0,0,1-.747.213h0Zm11.734-6.114-1.6,5.31-1.584-5.31H66.067l-1.62,5.28-1.557-5.28H61.681l2.077,6.947H65l1.575-5.141,1.549,5.141H69.36l2.077-6.947h-1.11Zm1.817,6.947h1.119v-5.3H72.144v5.3Zm6.015,0h1.36l-2.184-3.077,2-2.223H77.989L75.67,20.042V15.6H74.552V22.96H75.67v-1.4l0.832-.873Zm1.862,0h1.119v-5.3H80.02v5.3Zm-24.945-6a0.694,0.694,0,0,0,.515-0.2,0.684,0.684,0,0,0,.2-0.5,0.6,0.6,0,0,0-.206-0.465,0.736,0.736,0,0,0-.51-0.185,0.715,0.715,0,0,0-.51.194,0.669,0.669,0,0,0,0,.965,0.715,0.715,0,0,0,.51.194h0Zm17.632,0a0.694,0.694,0,0,0,.515-0.2,0.683,0.683,0,0,0,.2-0.5,0.6,0.6,0,0,0-.206-0.465,0.736,0.736,0,0,0-.51-0.185,0.715,0.715,0,0,0-.51.194,0.669,0.669,0,0,0,0,.965,0.715,0.715,0,0,0,.51.194h0Zm7.876,0a0.694,0.694,0,0,0,.515-0.2,0.684,0.684,0,0,0,.2-0.5,0.6,0.6,0,0,0-.206-0.465,0.736,0.736,0,0,0-.51-0.185,0.715,0.715,0,0,0-.51.194,0.669,0.669,0,0,0,0,.965,0.715,0.715,0,0,0,.51.194h0Z"/>
	<path id="powered" class="powered" d="M36.819,10.6a3.309,3.309,0,0,0,1.046-.151,2.125,2.125,0,0,0,.758-0.425,1.8,1.8,0,0,0,.464-0.65,2.127,2.127,0,0,0,.157-0.83A2.205,2.205,0,0,0,39.1,7.718a1.65,1.65,0,0,0-.448-0.635,2.072,2.072,0,0,0-.756-0.407,3.583,3.583,0,0,0-1.073-.144H34.88V12.99h0.927V10.6h1.013ZM35.807,7.262h1.013a2.222,2.222,0,0,1,.659.088,1.255,1.255,0,0,1,.468.254,1.039,1.039,0,0,1,.279.4,1.472,1.472,0,0,1,.092.538,1.437,1.437,0,0,1-.1.536,1.119,1.119,0,0,1-.286.416,1.321,1.321,0,0,1-.47.27,1.981,1.981,0,0,1-.646.1H35.807v-2.6Zm5.11,1.253a1.914,1.914,0,0,0-.693.47,2.082,2.082,0,0,0-.439.74,3.186,3.186,0,0,0,0,1.951,2.078,2.078,0,0,0,.439.742,1.912,1.912,0,0,0,.693.47,2.6,2.6,0,0,0,1.82,0,1.9,1.9,0,0,0,.688-0.47,2.1,2.1,0,0,0,.437-0.742,3.186,3.186,0,0,0,0-1.951,2.1,2.1,0,0,0-.437-0.74,1.9,1.9,0,0,0-.688-0.47A2.6,2.6,0,0,0,40.916,8.515Zm-0.081,3.431a2.056,2.056,0,0,1-.326-1.242,2.068,2.068,0,0,1,.326-1.242,1.149,1.149,0,0,1,.992-0.445,1.133,1.133,0,0,1,.981.445,2.079,2.079,0,0,1,.324,1.242,2.067,2.067,0,0,1-.324,1.242,1.138,1.138,0,0,1-.981.441A1.154,1.154,0,0,1,40.835,11.946Zm5.087,1.044h0.644a0.2,0.2,0,0,0,.194-0.162l0.994-3.011A1.893,1.893,0,0,0,47.813,9.6q0.023-.11.045-0.218,0.023,0.108.05,0.216T47.97,9.813l0.977,3.015a0.18,0.18,0,0,0,.171.162h0.675l1.476-4.567H50.625a0.258,0.258,0,0,0-.155.047,0.253,0.253,0,0,0-.092.124l-0.855,2.848q-0.045.171-.079,0.329t-0.061.315q-0.036-.157-0.077-0.315t-0.09-.328L48.3,8.576a0.234,0.234,0,0,0-.085-0.119,0.255,0.255,0,0,0-.157-0.047H47.691a0.235,0.235,0,0,0-.234.166L46.53,11.442q-0.05.171-.095,0.329t-0.085.315q-0.027-.157-0.059-0.315t-0.072-.328L45.378,8.594a0.242,0.242,0,0,0-.088-0.121,0.272,0.272,0,0,0-.169-0.05H44.447ZM52.95,8.526a1.98,1.98,0,0,0-.675.479,2.114,2.114,0,0,0-.425.716,2.6,2.6,0,0,0-.149.889,3.1,3.1,0,0,0,.164,1.051,2.152,2.152,0,0,0,.457.765,1.924,1.924,0,0,0,.7.468,2.354,2.354,0,0,0,.875.16,3.187,3.187,0,0,0,.5-0.04,2.616,2.616,0,0,0,.493-0.128,2.282,2.282,0,0,0,.446-0.22,1.587,1.587,0,0,0,.364-0.322l-0.243-.31a0.171,0.171,0,0,0-.157-0.081,0.371,0.371,0,0,0-.189.068q-0.108.067-.263,0.149a2.3,2.3,0,0,1-.369.149,1.707,1.707,0,0,1-.511.067,1.545,1.545,0,0,1-.572-0.1,1.139,1.139,0,0,1-.439-0.306,1.482,1.482,0,0,1-.288-0.515,2.519,2.519,0,0,1-.119-0.729h3.015a0.175,0.175,0,0,0,.16-0.067,0.553,0.553,0,0,0,.043-0.266,2.448,2.448,0,0,0-.144-0.871,1.821,1.821,0,0,0-.4-0.641,1.719,1.719,0,0,0-.608-0.4,2.083,2.083,0,0,0-.765-0.137A2.2,2.2,0,0,0,52.95,8.526Zm1.393,0.542a1.03,1.03,0,0,1,.358.254,1.1,1.1,0,0,1,.223.387,1.53,1.53,0,0,1,.077.5H52.574a1.552,1.552,0,0,1,.4-0.9A1.341,1.341,0,0,1,54.342,9.068Zm3.236,3.922V10.124a2.764,2.764,0,0,1,.187-0.4A1.264,1.264,0,0,1,58,9.426a0.9,0.9,0,0,1,.295-0.184,1.045,1.045,0,0,1,.376-0.063,1.278,1.278,0,0,1,.272.027,0.961,0.961,0,0,0,.187.027,0.136,0.136,0,0,0,.144-0.121l0.059-.639a0.692,0.692,0,0,0-.232-0.1,1.217,1.217,0,0,0-.281-0.032,1.147,1.147,0,0,0-.756.261,2.055,2.055,0,0,0-.531.715l-0.054-.666a0.307,0.307,0,0,0-.07-0.18,0.279,0.279,0,0,0-.191-0.05h-0.49V12.99h0.855Zm3.238-4.464a1.98,1.98,0,0,0-.675.479,2.114,2.114,0,0,0-.425.716,2.6,2.6,0,0,0-.149.889,3.1,3.1,0,0,0,.164,1.051,2.151,2.151,0,0,0,.457.765,1.924,1.924,0,0,0,.7.468,2.355,2.355,0,0,0,.875.16,3.186,3.186,0,0,0,.5-0.04,2.617,2.617,0,0,0,.493-0.128,2.282,2.282,0,0,0,.446-0.22,1.591,1.591,0,0,0,.364-0.322l-0.243-.31a0.171,0.171,0,0,0-.157-0.081,0.371,0.371,0,0,0-.189.068q-0.108.067-.263,0.149a2.3,2.3,0,0,1-.369.149,1.706,1.706,0,0,1-.511.067,1.545,1.545,0,0,1-.572-0.1,1.139,1.139,0,0,1-.439-0.306,1.484,1.484,0,0,1-.288-0.515,2.519,2.519,0,0,1-.119-0.729h3.015a0.174,0.174,0,0,0,.16-0.067A0.553,0.553,0,0,0,63.63,10.4a2.448,2.448,0,0,0-.144-0.871,1.823,1.823,0,0,0-.4-0.641,1.719,1.719,0,0,0-.608-0.4,2.083,2.083,0,0,0-.765-0.137A2.2,2.2,0,0,0,60.815,8.526Zm1.393,0.542a1.029,1.029,0,0,1,.358.254,1.1,1.1,0,0,1,.223.387,1.53,1.53,0,0,1,.077.5H60.44a1.552,1.552,0,0,1,.4-0.9A1.341,1.341,0,0,1,62.208,9.068ZM68.4,12.99V6.353H67.545V8.864a1.565,1.565,0,0,0-1.233-.522,1.816,1.816,0,0,0-.823.182,1.847,1.847,0,0,0-.621.5,2.264,2.264,0,0,0-.391.754,3.162,3.162,0,0,0-.135.943,3.728,3.728,0,0,0,.121,1,2.136,2.136,0,0,0,.349.731,1.481,1.481,0,0,0,.544.448,1.632,1.632,0,0,0,.709.151A1.833,1.833,0,0,0,66.519,13a1.774,1.774,0,0,0,.4-0.155,2.015,2.015,0,0,0,.355-0.243,2.488,2.488,0,0,0,.311-0.317l0.076,0.536a0.21,0.21,0,0,0,.225.171H68.4Zm-2.529-.718a0.862,0.862,0,0,1-.351-0.293,1.471,1.471,0,0,1-.221-0.511,3.162,3.162,0,0,1-.076-0.747,2.094,2.094,0,0,1,.333-1.278A1.119,1.119,0,0,1,66.506,9a1.373,1.373,0,0,1,.567.115,1.234,1.234,0,0,1,.473.4V11.7a1.916,1.916,0,0,1-.531.493,1.275,1.275,0,0,1-.671.173A1.15,1.15,0,0,1,65.871,12.273Zm6.606,0.718a0.2,0.2,0,0,0,.216-0.18l0.041-.392a1.741,1.741,0,0,0,.533.466,1.535,1.535,0,0,0,.754.169,1.831,1.831,0,0,0,.817-0.178,1.762,1.762,0,0,0,.617-0.5,2.343,2.343,0,0,0,.392-0.778,3.478,3.478,0,0,0,.137-1.008,3.389,3.389,0,0,0-.119-0.934,2.046,2.046,0,0,0-.344-0.7,1.532,1.532,0,0,0-.547-0.443,1.64,1.64,0,0,0-.722-0.155,1.726,1.726,0,0,0-.826.194,2.251,2.251,0,0,0-.646.522V6.353H71.924V12.99h0.553Zm2.329-3.575a1.982,1.982,0,0,1,.295,1.2,2.2,2.2,0,0,1-.333,1.332,1.128,1.128,0,0,1-.959.441,1.351,1.351,0,0,1-.558-0.115,1.246,1.246,0,0,1-.473-0.4V9.7A1.962,1.962,0,0,1,73.3,9.2a1.241,1.241,0,0,1,.664-0.173A1,1,0,0,1,74.806,9.415Zm6.032-.992H80.159a0.26,0.26,0,0,0-.153.047,0.249,0.249,0,0,0-.094.124l-1.143,2.781q-0.041.1-.077,0.209t-0.067.209a3.189,3.189,0,0,0-.121-0.41l-1.183-2.79a0.253,0.253,0,0,0-.257-0.171H76.32L78.2,12.711l-0.837,1.813H78a0.3,0.3,0,0,0,.194-0.052,0.375,0.375,0,0,0,.1-0.151Z"/>
	<g id="petals" class="petals">
		<path class="petal" d="M13.068,7.359A3.865,3.865,0,0,0,14.2,10.024a2.989,2.989,0,0,0,1.973.787,0.919,0.919,0,0,0,.628-0.281,3,3,0,0,0,.7-2.876C16.97,5.815,15.5,4.8,13.7,3.915A8.026,8.026,0,0,0,13.068,7.359Z"/>
		<path class="petal" d="M10.4,10.031a3.848,3.848,0,0,0,2.065,2.025,2.984,2.984,0,0,0,2.122-.031,0.923,0.923,0,0,0,.473-0.5A3,3,0,0,0,14.617,8.6c-1.2-1.493-2.94-1.869-4.942-1.991A8.024,8.024,0,0,0,10.4,10.031Z"/>
		<path class="petal" d="M8.959,13.524A3.831,3.831,0,0,0,11.639,14.6a2.99,2.99,0,0,0,1.949-.844,0.927,0.927,0,0,0,.246-0.645,3,3,0,0,0-1.528-2.533c-1.675-.919-3.428-0.6-5.324.06A8,8,0,0,0,8.959,13.524Z"/>
		<path class="petal" d="M8.956,17.307a3.824,3.824,0,0,0,2.885-.035,3,3,0,0,0,1.479-1.529,0.928,0.928,0,0,0-.018-0.691A2.981,2.981,0,0,0,10.926,13.3c-1.9-.2-3.394.766-4.9,2.1A7.954,7.954,0,0,0,8.956,17.307Z"/>
		<path class="petal" d="M10.394,20.8a3.831,3.831,0,0,0,2.653-1.141,3.017,3.017,0,0,0,.784-1.981,0.926,0.926,0,0,0-.28-0.631,2.971,2.971,0,0,0-2.863-.706c-1.831.54-2.844,2.013-3.722,3.824A7.927,7.927,0,0,0,10.394,20.8Z"/>
		<path class="petal" d="M13.054,23.479A3.849,3.849,0,0,0,15.07,21.4a3.022,3.022,0,0,0-.031-2.132,0.922,0.922,0,0,0-.5-0.476,2.97,2.97,0,0,0-2.914.449c-1.486,1.2-1.86,2.953-1.982,4.964A7.928,7.928,0,0,0,13.054,23.479Z"/>
		<path class="petal" d="M16.531,24.93A3.867,3.867,0,0,0,17.6,22.238a3.016,3.016,0,0,0-.841-1.958,0.918,0.918,0,0,0-.642-0.248A2.978,2.978,0,0,0,13.6,21.567c-0.914,1.683-.594,3.443.06,5.348A7.957,7.957,0,0,0,16.531,24.93Z"/>
		<path class="petal" d="M20.3,24.933a3.873,3.873,0,0,0-.035-2.9,3,3,0,0,0-1.522-1.486,0.917,0.917,0,0,0-.687.018,2.993,2.993,0,0,0-1.745,2.387c-0.2,1.906.763,3.409,2.093,4.918A8,8,0,0,0,20.3,24.933Z"/>
		<path class="petal" d="M23.776,23.489a3.866,3.866,0,0,0-1.136-2.665,2.989,2.989,0,0,0-1.973-.788,0.919,0.919,0,0,0-.628.281,3,3,0,0,0-.7,2.876c0.538,1.839,2,2.857,3.807,3.739A8.025,8.025,0,0,0,23.776,23.489Z"/>
		<path class="petal" d="M26.441,20.817a3.848,3.848,0,0,0-2.065-2.025,2.984,2.984,0,0,0-2.122.031,0.923,0.923,0,0,0-.473.5,3,3,0,0,0,.447,2.927c1.2,1.493,2.94,1.869,4.942,1.991A8.025,8.025,0,0,0,26.441,20.817Z"/>
		<path class="petal" d="M27.885,17.324a3.831,3.831,0,0,0-2.679-1.077,2.99,2.99,0,0,0-1.949.844,0.927,0.927,0,0,0-.246.645,3,3,0,0,0,1.528,2.533c1.675,0.919,3.428.6,5.324-.06A7.994,7.994,0,0,0,27.885,17.324Z"/>
		<path class="petal" d="M27.888,13.541A3.824,3.824,0,0,0,25,13.576a3,3,0,0,0-1.479,1.529,0.928,0.928,0,0,0,.018.691,2.981,2.981,0,0,0,2.376,1.753c1.9,0.2,3.394-.767,4.9-2.1A7.955,7.955,0,0,0,27.888,13.541Z"/>
		<path class="petal" d="M26.451,10.046A3.831,3.831,0,0,0,23.8,11.187a3.017,3.017,0,0,0-.784,1.982,0.927,0.927,0,0,0,.28.631,2.971,2.971,0,0,0,2.863.706c1.831-.54,2.844-2.013,3.722-3.824A7.926,7.926,0,0,0,26.451,10.046Z"/>
		<path class="petal" d="M23.791,7.369a3.849,3.849,0,0,0-2.016,2.074,3.022,3.022,0,0,0,.031,2.132,0.922,0.922,0,0,0,.5.476,2.97,2.97,0,0,0,2.914-.449c1.486-1.2,1.86-2.953,1.982-4.964A7.928,7.928,0,0,0,23.791,7.369Z"/>
		<path class="petal" d="M20.313,5.918A3.867,3.867,0,0,0,19.241,8.61a3.016,3.016,0,0,0,.84,1.958,0.918,0.918,0,0,0,.642.248A2.978,2.978,0,0,0,23.245,9.28c0.914-1.683.594-3.443-.06-5.348A7.958,7.958,0,0,0,20.313,5.918Z"/>
		<path class="petal" d="M16.548,5.915a3.874,3.874,0,0,0,.035,2.9A3,3,0,0,0,18.105,10.3a0.917,0.917,0,0,0,.687-0.018,2.993,2.993,0,0,0,1.745-2.387c0.2-1.906-.763-3.409-2.093-4.918A8,8,0,0,0,16.548,5.915Z"/>
	</g>
</svg>